<svg width="24" height="24" viewBox="0 0 19 19" fill="none" xmlns="http://www.w3.org/2000/svg">
<mask id="path-1-inside-1" fill="white">
<path fill-rule="evenodd" clip-rule="evenodd" d="M2.69881 6.04545V3.02273H4.21018V4.53409H5.72154V3.02273H8.74427V4.53409H10.2556V3.02273H13.2784V4.53409H14.7897V3.02273H16.3011V6.04545H2.69881ZM2.69881 15.1136H16.3011V7.55682H2.69881V15.1136ZM14.7898 1.51136V0H13.2784V1.51136H10.2557V0H8.74432V1.51136H5.72159V0H4.21023V1.51136H1.1875V16.625H17.8125V1.51136H14.7898Z"/>
</mask>
<path fill-rule="evenodd" clip-rule="evenodd" d="M2.69881 6.04545V3.02273H4.21018V4.53409H5.72154V3.02273H8.74427V4.53409H10.2556V3.02273H13.2784V4.53409H14.7897V3.02273H16.3011V6.04545H2.69881ZM2.69881 15.1136H16.3011V7.55682H2.69881V15.1136ZM14.7898 1.51136V0H13.2784V1.51136H10.2557V0H8.74432V1.51136H5.72159V0H4.21023V1.51136H1.1875V16.625H17.8125V1.51136H14.7898Z" fill="#83C4C4"/>
<path d="M2.69881 6.04545H2.54881V6.19545H2.69881V6.04545ZM2.69881 3.02273V2.87273H2.54881V3.02273H2.69881ZM4.21018 3.02273H4.36018V2.87273H4.21018V3.02273ZM4.21018 4.53409H4.06018V4.68409H4.21018V4.53409ZM5.72154 4.53409V4.68409H5.87154V4.53409H5.72154ZM5.72154 3.02273V2.87273H5.57154V3.02273H5.72154ZM8.74427 3.02273H8.89427V2.87273H8.74427V3.02273ZM8.74427 4.53409H8.59427V4.68409H8.74427V4.53409ZM10.2556 4.53409V4.68409H10.4056V4.53409H10.2556ZM10.2556 3.02273V2.87273H10.1056V3.02273H10.2556ZM13.2784 3.02273H13.4284V2.87273H13.2784V3.02273ZM13.2784 4.53409H13.1284V4.68409H13.2784V4.53409ZM14.7897 4.53409V4.68409H14.9397V4.53409H14.7897ZM14.7897 3.02273V2.87273H14.6397V3.02273H14.7897ZM16.3011 3.02273H16.4511V2.87273H16.3011V3.02273ZM16.3011 6.04545V6.19545H16.4511V6.04545H16.3011ZM2.69881 15.1136H2.54881V15.2636H2.69881V15.1136ZM16.3011 15.1136V15.2636H16.4511V15.1136H16.3011ZM16.3011 7.55682H16.4511V7.40682H16.3011V7.55682ZM2.69881 7.55682V7.40682H2.54881V7.55682H2.69881ZM14.7898 1.51136H14.6398V1.66136H14.7898V1.51136ZM14.7898 0H14.9398V-0.15H14.7898V0ZM13.2784 0V-0.15H13.1284V0H13.2784ZM13.2784 1.51136V1.66136H13.4284V1.51136H13.2784ZM10.2557 1.51136H10.1057V1.66136H10.2557V1.51136ZM10.2557 0H10.4057V-0.15H10.2557V0ZM8.74432 0V-0.15H8.59432V0H8.74432ZM8.74432 1.51136V1.66136H8.89432V1.51136H8.74432ZM5.72159 1.51136H5.57159V1.66136H5.72159V1.51136ZM5.72159 0H5.87159V-0.15H5.72159V0ZM4.21023 0V-0.15H4.06023V0H4.21023ZM4.21023 1.51136V1.66136H4.36023V1.51136H4.21023ZM1.1875 1.51136V1.36136H1.0375V1.51136H1.1875ZM1.1875 16.625H1.0375V16.775H1.1875V16.625ZM17.8125 16.625V16.775H17.9625V16.625H17.8125ZM17.8125 1.51136H17.9625V1.36136H17.8125V1.51136ZM2.84881 6.04545V3.02273H2.54881V6.04545H2.84881ZM2.69881 3.17273H4.21018V2.87273H2.69881V3.17273ZM4.06018 3.02273V4.53409H4.36018V3.02273H4.06018ZM4.21018 4.68409H5.72154V4.38409H4.21018V4.68409ZM5.87154 4.53409V3.02273H5.57154V4.53409H5.87154ZM5.72154 3.17273H8.74427V2.87273H5.72154V3.17273ZM8.59427 3.02273V4.53409H8.89427V3.02273H8.59427ZM8.74427 4.68409H10.2556V4.38409H8.74427V4.68409ZM10.4056 4.53409V3.02273H10.1056V4.53409H10.4056ZM10.2556 3.17273H13.2784V2.87273H10.2556V3.17273ZM13.1284 3.02273V4.53409H13.4284V3.02273H13.1284ZM13.2784 4.68409H14.7897V4.38409H13.2784V4.68409ZM14.9397 4.53409V3.02273H14.6397V4.53409H14.9397ZM14.7897 3.17273H16.3011V2.87273H14.7897V3.17273ZM16.1511 3.02273V6.04545H16.4511V3.02273H16.1511ZM16.3011 5.89545H2.69881V6.19545H16.3011V5.89545ZM2.69881 15.2636H16.3011V14.9636H2.69881V15.2636ZM16.4511 15.1136V7.55682H16.1511V15.1136H16.4511ZM16.3011 7.40682H2.69881V7.70682H16.3011V7.40682ZM2.54881 7.55682V15.1136H2.84881V7.55682H2.54881ZM14.9398 1.51136V0H14.6398V1.51136H14.9398ZM14.7898 -0.15H13.2784V0.15H14.7898V-0.15ZM13.1284 0V1.51136H13.4284V0H13.1284ZM13.2784 1.36136H10.2557V1.66136H13.2784V1.36136ZM10.4057 1.51136V0H10.1057V1.51136H10.4057ZM10.2557 -0.15H8.74432V0.15H10.2557V-0.15ZM8.59432 0V1.51136H8.89432V0H8.59432ZM8.74432 1.36136H5.72159V1.66136H8.74432V1.36136ZM5.87159 1.51136V0H5.57159V1.51136H5.87159ZM5.72159 -0.15H4.21023V0.15H5.72159V-0.15ZM4.06023 0V1.51136H4.36023V0H4.06023ZM4.21023 1.36136H1.1875V1.66136H4.21023V1.36136ZM1.0375 1.51136V16.625H1.3375V1.51136H1.0375ZM1.1875 16.775H17.8125V16.475H1.1875V16.775ZM17.9625 16.625V1.51136H17.6625V16.625H17.9625ZM17.8125 1.36136H14.7898V1.66136H17.8125V1.36136Z" fill="white" mask="url(#path-1-inside-1)"/>
</svg>
