<svg width="24" height="24" viewBox="0 0 24 24" fill="none" xmlns="http://www.w3.org/2000/svg">
<path fill-rule="evenodd" clip-rule="evenodd" d="M3.1 2.3C2.65817 2.3 2.3 2.65818 2.3 3.1V9.9C2.3 10.3418 2.65817 10.7 3.1 10.7H9.9C10.3418 10.7 10.7 10.3418 10.7 9.9V3.1C10.7 2.65818 10.3418 2.3 9.9 2.3H3.1ZM3.1 13.3C2.65817 13.3 2.3 13.6582 2.3 14.1V20.9C2.3 21.3418 2.65817 21.7 3.1 21.7H9.9C10.3418 21.7 10.7 21.3418 10.7 20.9V14.1C10.7 13.6582 10.3418 13.3 9.9 13.3H3.1ZM13.3 3.1C13.3 2.65818 13.6582 2.3 14.1 2.3H20.9C21.3418 2.3 21.7 2.65818 21.7 3.1V9.9C21.7 10.3418 21.3418 10.7 20.9 10.7H14.1C13.6582 10.7 13.3 10.3418 13.3 9.9V3.1ZM14.1 13.3C13.6582 13.3 13.3 13.6582 13.3 14.1V20.9C13.3 21.3418 13.6582 21.7 14.1 21.7H20.9C21.3418 21.7 21.7 21.3418 21.7 20.9V14.1C21.7 13.6582 21.3418 13.3 20.9 13.3H14.1ZM14.75 14.75H20.25V20.25H14.75V14.75ZM20.25 3.75H14.75V9.25H20.25V3.75ZM3.75 3.75H9.25V9.25H3.75V3.75ZM9.25 14.75H3.75V20.25H9.25V14.75Z" fill="#83C4C4"/>
<mask id="mask0" mask-type="alpha" maskUnits="userSpaceOnUse" x="2" y="2" width="20" height="20">
<path fill-rule="evenodd" clip-rule="evenodd" d="M3.1 2.3C2.65817 2.3 2.3 2.65818 2.3 3.1V9.9C2.3 10.3418 2.65817 10.7 3.1 10.7H9.9C10.3418 10.7 10.7 10.3418 10.7 9.9V3.1C10.7 2.65818 10.3418 2.3 9.9 2.3H3.1ZM3.1 13.3C2.65817 13.3 2.3 13.6582 2.3 14.1V20.9C2.3 21.3418 2.65817 21.7 3.1 21.7H9.9C10.3418 21.7 10.7 21.3418 10.7 20.9V14.1C10.7 13.6582 10.3418 13.3 9.9 13.3H3.1ZM13.3 3.1C13.3 2.65818 13.6582 2.3 14.1 2.3H20.9C21.3418 2.3 21.7 2.65818 21.7 3.1V9.9C21.7 10.3418 21.3418 10.7 20.9 10.7H14.1C13.6582 10.7 13.3 10.3418 13.3 9.9V3.1ZM14.1 13.3C13.6582 13.3 13.3 13.6582 13.3 14.1V20.9C13.3 21.3418 13.6582 21.7 14.1 21.7H20.9C21.3418 21.7 21.7 21.3418 21.7 20.9V14.1C21.7 13.6582 21.3418 13.3 20.9 13.3H14.1ZM14.75 14.75H20.25V20.25H14.75V14.75ZM20.25 3.75H14.75V9.25H20.25V3.75ZM3.75 3.75H9.25V9.25H3.75V3.75ZM9.25 14.75H3.75V20.25H9.25V14.75Z" fill="white"/>
</mask>
<g mask="url(#mask0)">
</g>
</svg>
