<svg width="24" height="24" viewBox="0 0 24 24" fill="none" xmlns="http://www.w3.org/2000/svg">
<path fill-rule="evenodd" clip-rule="evenodd" d="M19.4836 1.9089L13.2874 0.0308686C13.2702 0.0308686 13.253 0.0308686 13.253 0.0308686C13.2186 0.0308686 13.2014 0.013639 13.167 0.013639C13.1325 0.013639 13.1153 0.013639 13.0809 0.013639C13.0465 0.013639 13.0293 0.013639 12.9948 0.013639C12.9604 0.013639 12.9432 0.013639 12.9088 0.0308686C12.8916 0.0308686 12.8744 0.0308686 12.8744 0.0308686L6.90189 1.85721L0.91222 0.0308686C0.70568 -0.0380498 0.464716 0.013639 0.292599 0.134246C0.120482 0.272083 0 0.478839 0 0.702824V17.4156C0 17.7257 0.20654 18.0014 0.499139 18.0875L6.69535 19.9655C6.7642 19.9828 6.83305 20 6.90189 20C6.97074 20 7.03959 19.9828 7.10843 19.9655L13.0981 18.1564L19.0878 19.9655C19.1566 19.9828 19.2255 20 19.2943 20C19.4492 20 19.5869 19.9483 19.7074 19.8622C19.8795 19.7243 20 19.5176 20 19.2936V2.58085C20 2.27072 19.7935 2.01228 19.4836 1.9089ZM6.19621 18.3632L1.41136 16.9159V1.65045L6.19621 3.09774V18.3632ZM12.3924 16.8987L7.60757 18.3632V3.11497L12.3924 1.65045V16.8987ZM18.5886 18.3632L13.8038 16.9159V1.65045L18.5886 3.09774V18.3632Z" fill="#83C4C4"/>
</svg>
